inDegrees=yes
name=ik_S50_A05_T02
DataType=double
version=3
OpenSimVersion=4.3-2021-08-27-4bc7ad9
endheader
time	pelvis_tilt	pelvis_list	pelvis_rotation	pelvis_tx	pelvis_ty	pelvis_tz	hip_flexion_r	hip_adduction_r	hip_rotation_r	knee_angle_r	knee_angle_r_beta	ankle_angle_r	subtalar_angle_r	mtp_angle_r	hip_flexion_l	hip_adduction_l	hip_rotation_l	knee_angle_l	knee_angle_l_beta	ankle_angle_l	subtalar_angle_l	mtp_angle_l	lumbar_extension	lumbar_bending	lumbar_rotation	arm_flex_r	arm_add_r	arm_rot_r	elbow_flex_r	pro_sup_r	wrist_flex_r	wrist_dev_r	arm_flex_l	arm_add_l	arm_rot_l	elbow_flex_l	pro_sup_l	wrist_flex_l	wrist_dev_l
0	0	0	0	0	0.9399999999999999	0	0	0	0	0	0	0	0	0	0	0	0	0	0	0	0	0	0	0	0	0	0	0	0	89.99999999963507	0	0	0	0	0	0	89.99999999869995	0	0
0.02	-8.517272791478369	-0.6184656537552863	26.70467269861498	0	0.9399999999999999	0	3.08246709597151	-1.451186108139727	-1.038819681926306	4.774362734841191	0.08332834940749977	0	0	0	3.08246709597151	-1.451186108139727	-1.038819681926306	4.774362734841191	0.08332834940749977	0	0	0	-2.993066488085461	-4.67995684991198	7.008042709869872	16.77330725502964	-7.256051926312463	-5.569426027687173	57.32445506630054	116.8601619027789	0	0	17.19169178446801	-7.092602055583506	-7.976520959037183	60.0670787306707	123.7240031139129	0	0
0.04	-6.930166866852193	-2.9657882256115	29.68518379300734	0	0.9399999999999999	0	39.23239006128361	-12.69012363707487	-11.837217147057	39.00806279947475	0.680819130675551	0	0	0	39.23239006128361	-12.69012363707487	-11.837217147057	39.00806279947475	0.680819130675551	0	0	0	-3.430761853265873	-1.702649569035215	4.233247676513395	16.7614578393809	-7.263627144395053	-5.558819990938347	57.36114645932647	116.8321182788882	0	0	17.19246042894437	-7.104649840662422	-7.956167813648402	60.07885701666385	123.6802211025624	0	0
0.06	-6.931903122700805	-2.964786282797678	29.69022782803239	0	0.9399999999999999	0	39.23252030082143	-12.68972134553564	-11.83709138442558	39.008324304829	0.6808236948049942	0	0	0	39.23252030082143	-12.68972134553564	-11.83709138442558	39.008324304829	0.6808236948049942	0	0	0	-3.432005082020736	-1.700678620892386	4.230362022681494	16.76707384569143	-7.259889791207429	-5.56865734099232	57.34400433375778	116.8681106260639	0	0	17.18495469169131	-7.097925942986228	-7.973338889691092	60.04876470455557	123.7259239366117	0	0
0.08	-6.932846108439366	-2.965774248442715	29.69478885845941	0	0.9399999999999999	0	39.24477779980006	-12.66787577960828	-11.82791936474225	39.03201505748757	0.6812371764411619	0	0	0	39.24477779980006	-12.66787577960828	-11.82791936474225	39.03201505748757	0.6812371764411619	0	0	0	-3.438955163646224	-1.697830998344245	4.231303476063101	16.77084185422718	-7.265592031936743	-5.553309393711937	57.37998517519907	116.8213400096906	0	0	17.18922441624548	-7.0977481932123	-7.944808652816224	60.08358131552533	123.6722981447464	0	0
0.1	-6.933140090324314	-2.965513360380684	29.69604602017604	0	0.9399999999999999	0	39.25000755404549	-12.65900673579735	-11.82412633056537	39.04221336980196	0.6814151705691947	0	0	0	39.25000755404549	-12.65900673579735	-11.82412633056537	39.04221336980196	0.6814151705691947	0	0	0	-3.441564548015181	-1.69597102353212	4.23057374962611	16.76085817069346	-7.271083458437436	-5.543059986147582	57.39064280782132	116.8071651483394	0	0	17.19579580458387	-7.10386474572524	-7.932515016661412	60.09423304924104	123.6550161342354	0	0
0.12	-6.928576037227049	-2.962486778142702	29.70221831210059	0	0.9399999999999999	0	39.26179219852574	-12.64303626926626	-11.8164885130143	39.06566048250787	0.6818243998859989	0	0	0	39.26179219852574	-12.64303626926626	-11.8164885130143	39.06566048250787	0.6818243998859989	0	0	0	-3.441878167649507	-1.692463159195743	4.230113883997891	16.7569652149514	-7.269821983992403	-5.546816138696428	57.41275960625669	116.7782507440385	0	0	17.18674713116796	-7.109956862798356	-7.934503318418247	60.10597789702938	123.6321085982944	0	0
0.14	-6.931416581744866	-2.968361374586233	29.7067532620387	0	0.9399999999999999	0	39.25201910348265	-12.6520845964131	-11.82185073085732	39.04568846601063	0.6814758224398595	0	0	0	39.25201910348265	-12.6520845964131	-11.82185073085732	39.04568846601063	0.6814758224398595	0	0	0	-3.442287286189638	-1.699103532260615	4.23236912657477	16.726018573021	-7.242269203684423	-5.549194920885432	57.37953171842182	116.8225746552551	0	0	17.18010805288386	-7.097941185993698	-7.928945918416312	60.07882172513872	123.6943400899851	0	0
0.16	-6.932539593596514	-2.975171394866894	29.72720070652216	0	0.9399999999999999	0	39.2762690270748	-12.61331511746248	-11.80475419420561	39.09310555923192	0.682303406838296	0	0	0	39.2762690270748	-12.61331511746248	-11.80475419420561	39.09310555923192	0.682303406838296	0	0	0	-3.458198334243547	-1.697761803511217	4.228173842565477	16.74902438992227	-7.255065157475486	-5.534949772610543	57.45683558822785	116.7334984669648	0	0	17.18127730209864	-7.108025789531351	-7.892045333138735	60.13634303163827	123.5969011891188	0	0
0.18	-6.928119322602488	-2.975480511856082	29.74370181803301	0	0.9399999999999999	0	39.27920755430735	-12.60827898604833	-11.80261443104348	39.09881862820009	0.6824031187021842	0	0	0	39.27920755430735	-12.60827898604833	-11.80261443104348	39.09881862820009	0.6824031187021842	0	0	0	-3.45570097031383	-1.699810816291293	4.231922447883272	16.72542154554207	-7.25090865622608	-5.527101732266694	57.45457648139944	116.7319006443908	0	0	17.17510250588711	-7.107012241651332	-7.884263002179561	60.13598524174117	123.6147698283049	0	0
0.2	-6.913310728671477	-2.973600637702368	29.73994225929277	0	0.9399999999999999	0	39.28779199798473	-12.59539518439591	-11.79676116187562	39.11550201801114	0.6826942987847806	0	0	0	39.28779199798473	-12.59539518439591	-11.79676116187562	39.11550201801114	0.6826942987847806	0	0	0	-3.445909091303982	-1.703366265320889	4.236159512896188	16.69098498421145	-7.236042191874429	-5.523648015494891	57.46252774841658	116.7413415520703	0	0	17.13680900676806	-7.112543485507536	-7.850963579414506	60.128771788525	123.6441927430262	0	0
0.22	-6.907885874667643	-2.974551246612833	29.742416295789	0	0.9399999999999999	0	39.30582142466962	-12.56535102533439	-11.78370952189645	39.15031899916892	0.6833019697415887	0	0	0	39.30582142466962	-12.56535102533439	-11.78370952189645	39.15031899916892	0.6833019697415887	0	0	0	-3.450251812495942	-1.701820236176246	4.234685036390705	16.68224950314229	-7.259754208988204	-5.516956207535551	57.49354281983505	116.7061163272087	0	0	17.13262399905464	-7.126654360594227	-7.82944235960894	60.14240166173344	123.609349912433	0	0
0.24	-6.898095911344314	-2.975660772922938	29.74326447118919	0	0.9399999999999999	0	39.31315200794098	-12.55658428641924	-11.77931941283006	39.16505459387557	0.6835591543864593	0	0	0	39.31315200794098	-12.55658428641924	-11.77931941283006	39.16505459387557	0.6835591543864593	0	0	0	-3.445717799730995	-1.705998335863478	4.238570279341728	16.67192160936214	-7.232177440397551	-5.52460392282077	57.49554540054582	116.7041518504909	0	0	17.12634399378401	-7.124615652960501	-7.808807710719835	60.13272536770535	123.6075850468157	0	0
0.26	-6.892501733853597	-2.974716582351248	29.75025612335348	0	0.9399999999999999	0	39.31899706969724	-12.54210668324349	-11.77390180489653	39.17540412735174	0.6837397878216638	0	0	0	39.31899706969724	-12.54210668324349	-11.77390180489653	39.17540412735174	0.6837397878216638	0	0	0	-3.443096879389747	-1.706150168680025	4.234391472633352	16.67120505302535	-7.236639671579614	-5.54649589703533	57.46291780570438	116.7494158667323	0	0	17.11715194129804	-7.137236861877547	-7.833916792440056	60.12099556253265	123.6439180912839	0	0
